<svg xmlns="http://www.w3.org/2000/svg" version="1.1" xmlns:xlink="http://www.w3.org/1999/xlink" xmlns:svgjs="http://svgjs.dev/svgjs" width="1000" height="421" viewBox="0 0 1000 421"><g transform="matrix(1,0,0,1,-0.6060606060606233,-0.18281804220754339)"><svg viewBox="0 0 396 167" data-background-color="#ffffff" preserveAspectRatio="xMidYMid meet" height="421" width="1000" xmlns="http://www.w3.org/2000/svg" xmlns:xlink="http://www.w3.org/1999/xlink"><g id="tight-bounds" transform="matrix(1,0,0,1,0.2400000000000091,0.07251927089943422)"><svg viewBox="0 0 395.52 166.85496145820113" height="166.85496145820113" width="395.52"><g><svg viewBox="0 0 932.0015055611982 393.17626236195173" height="166.85496145820113" width="395.52"><g transform="matrix(1,0,0,1,536.4815055611982,95.73335229367204)"><svg viewBox="0 0 395.5199999999999 201.70955777460765" height="201.70955777460765" width="395.5199999999999"><g id="textblocktransform"><svg viewBox="0 0 395.5199999999999 201.70955777460765" height="201.70955777460765" width="395.5199999999999" id="textblock"><g><svg viewBox="0 0 395.5199999999999 201.70955777460765" height="201.70955777460765" width="395.5199999999999"><g transform="matrix(1,0,0,1,0,0)"><svg width="395.5199999999999" viewBox="3.55 -35.45 70.10000000000001 35.75" height="201.70955777460765" data-palette-color="#915eff"><path d="M30.4-35L30.4 0.05 22.8 0.05 10.95-21.5 10.95 0 3.55 0 3.55-35 10.95-35 23.15-12.4 23.15-35 30.4-35ZM63.75 0.3L63.75 0.3Q56.1 0.3 52.02-4.53 47.95-9.35 47.95-17.6 47.95-25.85 52.27-30.65 56.6-35.45 64.3-35.45L64.3-35.45Q68.5-35.45 72.65-34L72.65-34 71.25-28.4Q68.2-29.7 64.05-29.7 59.9-29.7 57.55-26.55 55.2-23.4 55.2-17.85 55.2-12.3 57.4-8.88 59.6-5.45 63.6-5.45L63.6-5.45Q66.6-5.45 72.15-7.4L72.15-7.4 73.65-2.3Q69.1 0.3 63.75 0.3Z" opacity="1" transform="matrix(1,0,0,1,0,0)" fill="#915eff" class="wordmark-text-0" data-fill-palette-color="primary" id="text-0"></path></svg></g></svg></g></svg></g></svg></g><g><svg viewBox="0 0 488.8627199999999 393.17626236195173" height="393.17626236195173" width="488.8627199999999"><g><svg xmlns="http://www.w3.org/2000/svg" xmlns:xlink="http://www.w3.org/1999/xlink" version="1.1" x="0" y="0" viewBox="0 9.786 100.00034525290006 80.42699999999999" enable-background="new 0 0 100 100" xml:space="preserve" width="488.8627199999999" height="393.17626236195173" class="icon-icon-0" data-fill-palette-color="accent" id="icon-0"><path d="M49.942 52.994c13.552-0.488 27.103-0.977 40.653-1.465-2.527-4.177-3.159-7.831-7.989-8.461-7.229-0.94-14.458-1.883-21.688-2.826-14.023-1.827-28.05-3.654-42.075-5.48C20.101 36.792 39.724 53.361 49.942 52.994z" fill="#fcce22" data-fill-palette-color="accent"></path><path d="M0 9.786c4.391 7.257 26.615 23.072 32.953 23.886 17.33 2.231 34.657 4.46 51.986 6.688-3.393-5.607-4.18-9.35-10.312-10.959-8.904-2.341-17.812-4.683-26.717-7.023C31.94 18.182 15.97 13.984 0 9.786z" fill="#fcce22" data-fill-palette-color="accent"></path><path d="M63.108 66.207c10.413-2.219 20.826-4.439 31.241-6.66-2.028-3.346-2.034-5.359-5.827-5.189-6.158 0.273-12.314 0.549-18.471 0.822-11.343 0.506-22.686 1.014-34.028 1.518C37.298 58.064 54.94 67.947 63.108 66.207z" fill="#fcce22" data-fill-palette-color="accent"></path><path d="M87.682 90.213c5.725-3.719 7.262-7.721 10.519-13.807 3.651-6.824 1.257-7.844-2.821-14.596-0.417-0.688-5.842 0.232-6.453 0.904-0.745 0.818-0.248 5.455-0.294 6.496C88.315 76.211 87.998 83.213 87.682 90.213z" fill="#fcce22" data-fill-palette-color="accent"></path><path d="M86.35 63.447c-3.795 0.809-8.604 0.191-9.572 4.229-1.373 5.736-2.746 11.475-4.12 17.211C81.904 82.678 86.028 71.582 86.35 63.447z" fill="#fcce22" data-fill-palette-color="accent"></path><path d="M74.666 66.121c-9.148 1.953-8.956 4.611-12.879 13.18C68.007 78.711 73.811 71.941 74.666 66.121z" fill="#fcce22" data-fill-palette-color="accent"></path></svg></g></svg></g></svg></g><defs></defs></svg><rect width="395.52" height="166.85496145820113" fill="none" stroke="none" visibility="hidden"></rect></g></svg></g></svg>